<svg width="18" height="20" viewBox="0 0 18 20" fill="none" xmlns="http://www.w3.org/2000/svg">
<path opacity="0.7" fill-rule="evenodd" clip-rule="evenodd" d="M0.576172 8.31776C0.576172 3.71789 4.30574 0 8.81702 0C13.341 0 17.0706 3.71789 17.0706 8.31776C17.0706 10.6357 16.2527 12.7876 14.9064 14.6116C13.4213 16.6235 11.5907 18.3765 9.53026 19.7524C9.05868 20.0704 8.63309 20.0944 8.11553 19.7524C6.04333 18.3765 4.21279 16.6235 2.74034 14.6116C1.39311 12.7876 0.576172 10.6357 0.576172 8.31776ZM6.1012 8.57677C6.1012 10.1177 7.32123 11.3297 8.81716 11.3297C10.3141 11.3297 11.5459 10.1177 11.5459 8.57677C11.5459 7.04782 10.3141 5.77686 8.81716 5.77686C7.32123 5.77686 6.1012 7.04782 6.1012 8.57677Z" fill="#605BFF"/>
</svg>
