<svg width="12" height="12" viewBox="0 0 12 12" fill="none" xmlns="http://www.w3.org/2000/svg">
<path opacity="0.5" fill-rule="evenodd" clip-rule="evenodd" d="M0 5.20196C0 2.329 2.30421 0 5.14661 0C6.51157 0 7.82063 0.548062 8.78581 1.52362C9.75098 2.49917 10.2932 3.82231 10.2932 5.20196C10.2932 8.07492 7.989 10.4039 5.14661 10.4039C2.30421 10.4039 0 8.07492 0 5.20196ZM10.208 9.39206L11.7407 10.6293H11.7673C12.0774 10.9428 12.0774 11.451 11.7673 11.7644C11.4572 12.0778 10.9545 12.0778 10.6444 11.7644L9.37241 10.3066C9.25216 10.1854 9.18457 10.0209 9.18457 9.84932C9.18457 9.67772 9.25216 9.51319 9.37241 9.39206C9.60431 9.16172 9.97606 9.16172 10.208 9.39206Z" fill="#030229"/>
</svg>
